<svg xmlns="http://www.w3.org/2000/svg" width="1680" height="1180" viewBox="0 0 1680 1180" role="img" aria-labelledby="title desc">
  <title id="title">Receber Bank - Fluxos das jornadas</title>
  <desc id="desc">Fluxos separados para explicar as jornadas de emissao de boleto, registro externo, pagamento aprovado, pagamento rejeitado, consulta e notificacao.</desc>
  <defs>
    <style>
      .bg { fill: #f7f8fb; }
      .title { fill: #172033; font: 800 34px Inter, Arial, sans-serif; }
      .subtitle { fill: #526173; font: 500 17px Inter, Arial, sans-serif; }
      .journey { fill: #ffffff; stroke: #d8dfeb; stroke-width: 2; rx: 18; }
      .journey-blue { fill: #f6fbff; stroke: #bed2eb; }
      .journey-green { fill: #f7fff9; stroke: #b8dec3; }
      .journey-red { fill: #fff7f8; stroke: #efb4c1; }
      .journey-amber { fill: #fffaf1; stroke: #e5c982; }
      .box { fill: #ffffff; stroke: #cfd8e6; stroke-width: 2; rx: 12; }
      .box-blue { fill: #eef6ff; stroke: #147eba; }
      .box-green { fill: #effaf7; stroke: #17865a; }
      .box-orange { fill: #fff8ea; stroke: #b7791f; }
      .box-red { fill: #fff1f2; stroke: #be123c; }
      .box-gray { fill: #f8fafc; stroke: #64748b; }
      .h { fill: #172033; font: 800 20px Inter, Arial, sans-serif; }
      .label { fill: #172033; font: 700 15px Inter, Arial, sans-serif; }
      .small { fill: #5d6b82; font: 500 12px Inter, Arial, sans-serif; }
      .tag { fill: #232f3e; rx: 10; }
      .tag-text { fill: #ffffff; font: 700 11px Inter, Arial, sans-serif; }
      .arrow { fill: none; stroke: #26364c; stroke-width: 3.5; marker-end: url(#arrow); }
      .event { fill: none; stroke: #b7791f; stroke-width: 3.5; stroke-dasharray: 9 7; marker-end: url(#arrow-orange); }
      .reject { fill: none; stroke: #be123c; stroke-width: 3.5; stroke-dasharray: 8 7; marker-end: url(#arrow-red); }
    </style>
    <marker id="arrow" markerWidth="13" markerHeight="13" refX="11" refY="6.5" orient="auto">
      <path d="M0 0 L13 6.5 L0 13 Z" fill="#26364c"/>
    </marker>
    <marker id="arrow-orange" markerWidth="13" markerHeight="13" refX="11" refY="6.5" orient="auto">
      <path d="M0 0 L13 6.5 L0 13 Z" fill="#b7791f"/>
    </marker>
    <marker id="arrow-red" markerWidth="13" markerHeight="13" refX="11" refY="6.5" orient="auto">
      <path d="M0 0 L13 6.5 L0 13 Z" fill="#be123c"/>
    </marker>
  </defs>

  <rect width="1680" height="1180" class="bg"/>
  <text x="56" y="64" class="title">Fluxos das jornadas do Receber Bank</text>
  <text x="56" y="96" class="subtitle">Use como roteiro de entrevista: cada linha explica uma jornada sem cruzar setas com as demais.</text>

  <rect x="56" y="130" width="1568" height="145" class="journey journey-blue"/>
  <text x="86" y="164" class="h">1. Emissao do boleto</text>
  <rect x="86" y="184" width="190" height="64" class="box box-blue"/>
  <text x="110" y="210" class="label">Cliente PJ</text>
  <text x="110" y="232" class="small">solicita boleto</text>
  <rect x="336" y="184" width="210" height="64" class="box box-blue"/>
  <text x="360" y="210" class="label">API Gateway / SQS</text>
  <text x="360" y="232" class="small">entrada resiliente</text>
  <rect x="606" y="184" width="210" height="64" class="box box-green"/>
  <text x="630" y="210" class="label">boleto-service</text>
  <text x="630" y="232" class="small">valida e gera boleto</text>
  <rect x="876" y="184" width="210" height="64" class="box box-blue"/>
  <text x="900" y="210" class="label">RDS write</text>
  <text x="900" y="232" class="small">persistencia ACID</text>
  <rect x="1146" y="184" width="210" height="64" class="box box-orange"/>
  <text x="1170" y="210" class="label">Outbox</text>
  <text x="1170" y="232" class="small">evento na transacao</text>
  <rect x="1416" y="184" width="160" height="64" class="box box-orange"/>
  <text x="1440" y="210" class="label">MSK</text>
  <text x="1440" y="232" class="small">boleto.gerado</text>
  <path d="M276 216 H336" class="arrow"/>
  <path d="M546 216 H606" class="arrow"/>
  <path d="M816 216 H876" class="arrow"/>
  <path d="M1086 216 H1146" class="arrow"/>
  <path d="M1356 216 H1416" class="event"/>

  <rect x="56" y="305" width="1568" height="145" class="journey journey-amber"/>
  <text x="86" y="339" class="h">2. Registro externo do boleto</text>
  <rect x="86" y="359" width="220" height="64" class="box box-green"/>
  <text x="110" y="385" class="label">boleto-service</text>
  <text x="110" y="407" class="small">dados do boleto</text>
  <rect x="396" y="359" width="240" height="64" class="box box-orange"/>
  <text x="420" y="385" class="label">Registradora fake</text>
  <text x="420" y="407" class="small">representa CIP/Nuclea</text>
  <rect x="726" y="359" width="240" height="64" class="box box-orange"/>
  <text x="750" y="385" class="label">Numero registro</text>
  <text x="750" y="407" class="small">ack externo simulado</text>
  <rect x="1056" y="359" width="240" height="64" class="box box-gray"/>
  <text x="1080" y="385" class="label">Limite claro</text>
  <text x="1080" y="407" class="small">core nao finge terceiro</text>
  <path d="M306 391 H396" class="arrow"/>
  <path d="M636 391 H726" class="arrow"/>
  <path d="M966 391 H1056" class="arrow"/>

  <rect x="56" y="480" width="1568" height="145" class="journey journey-green"/>
  <text x="86" y="514" class="h">3. Pagamento aprovado</text>
  <rect x="86" y="534" width="210" height="64" class="box box-blue"/>
  <text x="110" y="560" class="label">Estimulo externo</text>
  <text x="110" y="582" class="small">webhook / CNAB / API</text>
  <rect x="366" y="534" width="220" height="64" class="box box-green"/>
  <text x="390" y="560" class="label">payment-service</text>
  <text x="390" y="582" class="small">busca boleto aguardando</text>
  <rect x="656" y="534" width="240" height="64" class="box box-green"/>
  <text x="680" y="560" class="label">Valida regra</text>
  <text x="680" y="582" class="small">valor total + vencimento</text>
  <rect x="966" y="534" width="220" height="64" class="box box-orange"/>
  <text x="990" y="560" class="label">MSK</text>
  <text x="990" y="582" class="small">pagamento.efetivado</text>
  <rect x="1256" y="534" width="240" height="64" class="box box-blue"/>
  <text x="1280" y="560" class="label">Read model + notificacao</text>
  <text x="1280" y="582" class="small">status PAGO e aviso PJ</text>
  <path d="M296 566 H366" class="arrow"/>
  <path d="M586 566 H656" class="arrow"/>
  <path d="M896 566 H966" class="event"/>
  <path d="M1186 566 H1256" class="event"/>

  <rect x="56" y="655" width="1568" height="145" class="journey journey-red"/>
  <text x="86" y="689" class="h">4. Pagamento rejeitado</text>
  <rect x="86" y="709" width="210" height="64" class="box box-blue"/>
  <text x="110" y="735" class="label">Estimulo externo</text>
  <text x="110" y="757" class="small">valor/data recebidos</text>
  <rect x="366" y="709" width="220" height="64" class="box box-green"/>
  <text x="390" y="735" class="label">payment-service</text>
  <text x="390" y="757" class="small">aplica validacoes</text>
  <rect x="656" y="709" width="240" height="64" class="box box-red"/>
  <text x="680" y="735" class="label">Falha de regra</text>
  <text x="680" y="757" class="small">valor divergente ou vencido</text>
  <rect x="966" y="709" width="220" height="64" class="box box-red"/>
  <text x="990" y="735" class="label">MSK</text>
  <text x="990" y="757" class="small">pagamento.rejeitado</text>
  <rect x="1256" y="709" width="240" height="64" class="box box-gray"/>
  <text x="1280" y="735" class="label">Read model + notificacao</text>
  <text x="1280" y="757" class="small">motivo visivel ao cliente</text>
  <path d="M296 741 H366" class="arrow"/>
  <path d="M586 741 H656" class="arrow"/>
  <path d="M896 741 H966" class="reject"/>
  <path d="M1186 741 H1256" class="reject"/>

  <rect x="56" y="830" width="740" height="240" class="journey"/>
  <text x="86" y="864" class="h">5. Consulta operacional</text>
  <rect x="86" y="894" width="180" height="64" class="box box-blue"/>
  <text x="110" y="920" class="label">Cliente / Backoffice</text>
  <text x="110" y="942" class="small">consulta status</text>
  <rect x="316" y="894" width="170" height="64" class="box box-green"/>
  <text x="340" y="920" class="label">query-service</text>
  <text x="340" y="942" class="small">API de leitura</text>
  <rect x="536" y="894" width="190" height="64" class="box box-blue"/>
  <text x="560" y="920" class="label">RDS read model</text>
  <text x="560" y="942" class="small">status atualizado</text>
  <path d="M266 926 H316" class="arrow"/>
  <path d="M486 926 H536" class="arrow"/>
  <text x="86" y="1005" class="small">Por que separar? Consultas nao pressionam o banco transacional de escrita.</text>
  <text x="86" y="1030" class="small">Esse bloco sustenta a explicacao de CQRS na entrevista.</text>

  <rect x="884" y="830" width="740" height="240" class="journey"/>
  <text x="914" y="864" class="h">6. Notificacao e observabilidade</text>
  <rect x="914" y="894" width="170" height="64" class="box box-orange"/>
  <text x="938" y="920" class="label">MSK</text>
  <text x="938" y="942" class="small">eventos de dominio</text>
  <rect x="1134" y="894" width="210" height="64" class="box box-green"/>
  <text x="1158" y="920" class="label">notification-service</text>
  <text x="1158" y="942" class="small">mensagem ao cliente PJ</text>
  <rect x="1394" y="894" width="190" height="64" class="box box-gray"/>
  <text x="1418" y="920" class="label">CloudWatch / X-Ray</text>
  <text x="1418" y="942" class="small">logs, metricas e tracing</text>
  <path d="M1084 926 H1134" class="event"/>
  <path d="M1344 926 H1394" class="arrow"/>
  <text x="914" y="1005" class="small">Por que observar? Em arquitetura distribuida, erro raramente esta em um unico servico.</text>
  <text x="914" y="1030" class="small">Tracing e logs conectam a jornada inteira: boleto, pagamento, consulta e notificacao.</text>

  <rect x="56" y="1100" width="78" height="22" class="tag"/>
  <text x="72" y="1115" class="tag-text">Chave</text>
  <text x="150" y="1116" class="small">Seta solida = chamada/gravacao sincrona. Seta tracejada laranja = evento aprovado. Seta tracejada vermelha = evento de rejeicao.</text>
</svg>
